# xmcd
#
# Track frame offsets:
#	150
#	16427
#	35551
#	54041
#	74678
#	93716
#	109786
#	134794
#	149194
#	168464
#	193439
#	228843
#	253461
#	273315
#	293214
#	331062
#	351032
#
# Disc length: 4711 seconds
#
# Revision: 1
# Processed by: cddbd v1.5.2PL0 Copyright (c) Steve Scherf et al.
# Submitted via: EasyCDDAExtractor 16.1.0.1
#
DISCID=18126511
DTITLE=Kollárovci - Goraľu,cy či ne žaľ
DYEAR=2013
DGENRE=
TTITLE0=Keď chlapci hrajú
TTITLE1=Dedinôčka
TTITLE2=Kresané goraľské/Zagorojče muzici/Viecna/Hej guroľ jo se guroľ
TTITLE3=Nočný sen
TTITLE4=Láska si pýta dvoch
TTITLE5=A jo hlopiec
TTITLE6=Goraľské poľky-Hej gavalerovie/Kazda harna/Hej bystro voda.
TTITLE7=Večer keď slniečko za hory zachodí
TTITLE8=Mám ťa tád
TTITLE9=Terchová mix-A veď sme my bratia/V pondelok doma nebudem/Keď ja pôjdem
TTITLE9=na Oravu/Keby moje nôžky/Hraj že mi muzička.
TTITLE10=České  polky-Škoda lásky/Všude bylo ticho/Za vodou/Vysoký jalovec/Co 
TTITLE10=ste hasiči/A ja ťa nechcem.
TTITLE11=Goraľu,cy či ne žaľ
TTITLE12=Mám ja hrušku/Nepoveyd Ty dievča materi
TTITLE13=Zbojnícke goraľské-Podzme hlopci/Za gurami,za ľasami/Hej ide v ľas/V 
TTITLE13=murovanej pivnici
TTITLE14=Zábava mix-Dnes večer vám zábavu hráme/Načo pôjdem domov/Apoštáris/Ko
TTITLE14=koduj/Tancuj,tancuj.
TTITLE15=Priatelia
TTITLE16=Pozdrav od Kollárovcov
EXTD=
EXTT0=
EXTT1=
EXTT2=
EXTT3=
EXTT4=
EXTT5=
EXTT6=
EXTT7=
EXTT8=
EXTT9=
EXTT10=
EXTT11=
EXTT12=
EXTT13=
EXTT14=
EXTT15=
EXTT16=
PLAYORDER=
